<?xml version="1.0" standalone="no"?>
<!DOCTYPE svg PUBLIC "-//W3C//DTD SVG 20010904//EN"
 "http://www.w3.org/TR/2001/REC-SVG-20010904/DTD/svg10.dtd">
<svg version="1.0" xmlns="http://www.w3.org/2000/svg"
 width="700.000000pt" height="700.000000pt" viewBox="0 0 700.000000 700.000000"
 preserveAspectRatio="xMidYMid meet">
<metadata>
Created by potrace 1.11, written by Peter Selinger 2001-2013
</metadata>
<g transform="translate(0.000000,700.000000) scale(0.100000,-0.100000)"
fill="#000000" stroke="none">
<path d="M3431 6458 c-21 -7 -88 -140 -96 -190 -3 -18 -8 -44 -10 -58 -2 -14
-11 -68 -20 -120 -9 -52 -18 -108 -21 -125 -13 -80 -27 -145 -33 -146 -3 0
-26 -3 -51 -5 -25 -3 -50 -6 -56 -9 -7 -2 -54 91 -110 216 -55 120 -109 231
-122 246 -58 69 -105 114 -116 110 -6 -2 -37 -10 -69 -17 -64 -15 -73 -22 -82
-65 -3 -17 -8 -46 -12 -65 -12 -55 -9 -140 11 -310 3 -19 8 -71 11 -115 4 -44
8 -89 9 -100 2 -15 -12 -26 -53 -46 -31 -15 -60 -25 -66 -22 -5 2 -68 77 -140
165 -71 88 -141 172 -155 187 -29 32 -156 115 -167 109 -5 -1 -37 -18 -71 -37
l-64 -35 7 -92 c6 -83 14 -113 90 -314 93 -246 92 -231 21 -279 l-41 -28 -199
142 c-161 115 -212 146 -270 165 -39 12 -75 24 -81 26 -9 3 -83 -61 -113 -98
-19 -23 38 -175 94 -252 187 -255 231 -322 223 -336 -4 -8 -23 -32 -41 -53
l-33 -37 -225 85 c-204 77 -232 85 -315 90 l-91 6 -37 -67 c-20 -37 -37 -70
-37 -75 0 -4 22 -40 50 -79 38 -56 84 -101 207 -203 87 -71 170 -140 185 -153
l28 -23 -26 -60 c-19 -43 -31 -59 -43 -56 -9 2 -57 6 -107 10 -49 4 -100 8
-114 11 -14 2 -56 6 -95 10 -38 3 -86 7 -105 9 -39 5 -199 -22 -216 -36 -6 -5
-17 -35 -24 -66 -7 -32 -15 -63 -17 -70 -5 -12 45 -64 106 -111 18 -14 128
-70 245 -122 l211 -97 -1 -62 c-1 -33 -3 -64 -6 -66 -6 -6 -32 -12 -93 -20
-22 -3 -47 -8 -55 -10 -8 -2 -35 -7 -60 -10 -25 -3 -52 -8 -60 -10 -8 -2 -35
-7 -60 -10 -102 -13 -159 -29 -232 -66 l-78 -39 0 -80 0 -80 79 -40 c71 -35
101 -43 288 -74 114 -19 222 -37 238 -39 28 -3 31 -7 41 -68 l10 -64 -45 -22
c-52 -26 -199 -94 -311 -144 -83 -37 -95 -44 -169 -111 l-52 -47 17 -68 c9
-37 22 -73 28 -79 18 -17 168 -45 216 -39 44 4 203 20 325 31 33 3 69 7 81 9
11 2 25 0 30 -3 10 -7 56 -113 52 -117 -2 -2 -42 -34 -90 -73 -47 -39 -97 -80
-110 -91 -13 -10 -56 -46 -96 -79 -48 -38 -91 -85 -123 -133 -27 -41 -49 -78
-49 -82 0 -4 17 -37 37 -73 l38 -65 90 6 c78 5 113 15 265 71 153 57 224 84
267 101 6 2 29 -18 52 -46 l40 -51 -142 -200 c-122 -170 -147 -212 -169 -281
-30 -92 -31 -90 42 -156 l46 -42 81 26 c69 23 110 48 279 168 139 99 204 140
214 134 8 -4 32 -22 53 -41 l37 -33 -84 -225 c-77 -204 -85 -232 -91 -315 l-6
-91 67 -37 c37 -20 69 -37 73 -37 3 0 39 22 79 49 53 35 96 76 158 152 47 57
93 113 102 124 9 11 37 45 62 75 25 30 49 58 54 61 4 4 34 -4 65 -16 41 -17
56 -28 55 -42 -3 -48 -16 -181 -19 -203 -2 -14 -6 -61 -10 -105 -3 -44 -8 -97
-11 -118 -6 -43 23 -196 40 -213 6 -6 42 -19 79 -28 55 -13 70 -14 80 -4 65
69 110 127 126 162 10 22 31 70 47 106 16 35 52 114 80 175 l51 110 63 -2 c34
-1 64 -4 66 -6 3 -3 23 -111 45 -242 36 -216 43 -243 79 -316 43 -84 37 -81
125 -81 19 0 44 1 55 1 14 1 31 23 60 81 37 74 44 99 80 316 21 130 40 238 43
240 2 2 31 8 64 12 l61 8 35 -75 c19 -42 63 -139 98 -216 41 -92 78 -158 108
-194 26 -29 53 -62 62 -73 15 -19 17 -19 85 -2 38 9 74 21 80 25 15 12 46 178
40 214 -3 17 -8 62 -11 100 -3 39 -7 86 -10 105 -2 19 -7 71 -10 115 -3 44 -8
87 -10 95 -7 23 5 33 64 57 59 25 54 27 111 -47 19 -25 45 -56 57 -70 11 -14
61 -73 110 -133 68 -81 107 -118 161 -153 40 -25 75 -44 79 -42 5 1 37 18 71
37 l64 35 -7 90 c-5 81 -14 113 -85 301 -43 116 -81 218 -85 227 -5 12 7 27
45 57 l51 40 62 -44 c34 -25 80 -57 101 -71 22 -15 44 -31 50 -36 63 -55 202
-139 261 -158 39 -13 75 -25 81 -27 14 -5 126 108 120 122 -2 5 -14 43 -27 83
-19 59 -48 107 -165 270 -102 142 -139 201 -133 212 5 8 23 32 41 53 l33 38
50 -20 c76 -30 367 -138 390 -145 11 -3 59 -8 108 -11 78 -5 88 -4 94 12 4 10
19 39 35 64 15 25 28 51 28 56 0 10 -85 140 -103 157 -10 10 -356 296 -365
301 -1 1 9 30 24 64 25 57 29 61 53 57 14 -3 55 -8 91 -11 76 -7 119 -11 215
-21 80 -9 181 -9 210 -2 11 3 39 9 62 13 23 3 46 12 51 18 5 7 16 42 26 79
l16 67 -51 48 c-46 43 -112 93 -122 93 -9 0 -382 171 -393 180 -7 7 -8 27 -1
69 10 65 7 62 95 76 32 5 67 11 120 20 15 2 70 11 122 20 52 8 108 17 123 20
36 7 184 81 189 94 1 6 2 42 0 81 l-4 71 -77 39 c-69 34 -108 45 -231 65 -19
3 -62 10 -95 16 -33 6 -73 13 -88 15 -41 5 -140 24 -143 26 -1 2 -6 31 -11 65
l-9 61 50 23 c67 30 182 82 284 130 46 22 86 39 89 39 7 0 48 33 104 84 l49
45 -16 68 c-9 37 -22 73 -28 79 -15 15 -173 45 -211 40 -16 -2 -64 -7 -105
-11 -41 -3 -88 -8 -105 -9 -42 -5 -196 -18 -218 -20 -14 -1 -25 14 -42 56
l-23 56 32 29 c17 16 58 51 91 78 33 27 62 52 65 55 3 3 46 38 96 79 70 55
103 91 138 146 25 40 46 76 46 79 0 4 -17 36 -37 72 l-37 64 -91 -5 c-83 -5
-109 -12 -315 -90 l-225 -85 -33 37 c-19 21 -37 45 -41 53 -6 10 35 75 134
213 116 162 146 211 165 270 12 40 24 77 27 83 6 15 -108 126 -124 120 -8 -3
-44 -15 -81 -26 -54 -17 -105 -48 -267 -164 -139 -100 -205 -141 -215 -135 -8
4 -32 22 -53 41 l-38 33 85 225 c78 206 86 233 91 315 l5 91 -65 37 c-35 20
-67 37 -71 37 -12 0 -154 -92 -162 -105 -4 -6 -26 -34 -49 -61 -36 -43 -243
-295 -248 -302 -1 -1 -30 9 -63 24 -43 19 -60 31 -57 43 1 9 6 52 10 96 3 44
8 96 10 115 2 19 7 67 10 105 3 39 8 87 11 109 5 45 -24 202 -40 214 -6 5 -42
17 -79 26 l-68 17 -47 -52 c-72 -80 -72 -81 -176 -310 l-98 -216 -61 10 c-34
5 -63 10 -65 12 -2 2 -16 81 -32 177 -41 245 -40 240 -46 273 -4 17 -24 64
-45 107 l-38 76 -66 4 c-37 1 -75 0 -84 -4z m170 -1369 c68 -2 229 -27 309
-49 447 -119 825 -434 1030 -859 35 -72 87 -209 94 -248 2 -10 9 -38 16 -63
15 -56 17 -64 25 -131 4 -30 9 -57 11 -61 14 -22 5 -325 -11 -418 -3 -14 -7
-41 -10 -60 -10 -57 -35 -150 -65 -235 -154 -441 -522 -810 -963 -965 -90 -31
-195 -60 -242 -66 -36 -4 -102 -15 -130 -21 -29 -6 -323 -6 -333 0 -4 3 -35 8
-67 12 -129 14 -320 74 -465 145 -216 106 -397 252 -551 445 -165 206 -298
514 -325 750 -3 33 -8 63 -11 67 -2 4 -4 75 -4 159 -1 201 23 343 86 529 33
96 104 252 118 258 4 2 7 8 7 14 0 12 90 147 139 208 55 68 199 210 266 260
183 139 364 226 585 284 105 27 144 33 275 42 50 4 91 8 93 9 1 1 15 1 30 -1
15 -2 57 -4 93 -5z"/>
<path d="M3375 4633 c-259 -47 -395 -101 -555 -220 -97 -73 -270 -260 -270
-292 0 -6 -4 -11 -8 -11 -19 0 -129 -249 -147 -336 -49 -222 -38 -451 30 -644
138 -394 466 -675 875 -749 148 -27 345 -21 480 16 377 102 669 370 795 730
79 228 81 502 4 733 -95 286 -302 523 -575 658 -76 38 -175 76 -225 86 -13 3
-49 10 -79 16 -53 11 -284 20 -325 13z"/>
</g>
</svg>
